<svg xmlns="http://www.w3.org/2000/svg" width="300" height="73" viewBox="0 0 300 73"><path style="stroke:none;fill-rule:nonzero;fill:#003f98;fill-opacity:1" d="M13.52.07a8 8 0 0 0-.579.102 26 26 0 0 1-.488.121 7.3 7.3 0 0 0-1.437.531c-.446.227-1.305.82-1.418.98-.059.083.004.075.148-.011.215-.129.676-.215.824-.148q.113.05.164.007c.04-.03.07-.03.106.004.12.121.027.305-.152.305-.122 0-.192.125-.106.18.047.023.027.074-.078.199-.082.086-.145.187-.145.223 0 .03-.043.097-.097.144-.149.117-.305.36-.297.45.02.183 0 .195-.168.167-.281-.047-.324-.074-.324-.16 0-.07.023-.078.164-.059.152.028.16.024.133-.078a1 1 0 0 1-.032-.187c0-.043-.027-.078-.062-.078-.04 0-.051-.035-.035-.114.011-.082.035-.097.066-.066.082.078.113.055.145-.086.015-.074.054-.133.09-.133.038 0 .062-.031.062-.066 0-.074-.176-.094-.242-.027-.102.09-.325.09-.438.003a.5.5 0 0 0-.133-.09c-.03 0-.562.63-.562.669 0 .078.176.144.238.09.043-.036.067-.032.09.023.012.035.004.066-.02.066-.019 0-.066.031-.105.067-.062.062-.074.062-.16-.024-.133-.133-.188-.11-.348.13-.16.25-.168.3-.07.41.062.074.062.081-.027.128a.6.6 0 0 1-.223.055c-.106.004-.156.055-.328.32-.176.266-.246.426-.192.43.086.004.364.137.368.172.007.027.011.066.015.093.004.063.153.06.219-.007.039-.04.055-.032.078.023.05.129.152.086.152-.055v-.128l.137.066a.43.43 0 0 0 .266.039c.097-.016.129-.008.129.04 0 .038.039.07.082.07q.072 0 .133-.188c.058-.18.054-.2-.032-.254-.101-.063-.125-.207-.043-.254.067-.043.117.024.145.18.015.074.047.14.074.148.02.008.043.043.043.074 0 .09.125.118.145.032.02-.063.027-.055.054.023.02.059.047.102.059.102.043 0 .137-.157.14-.235 0-.047.028-.078.059-.062.031.008.055.09.055.191 0 .156-.02.184-.157.246-.101.047-.156.106-.16.168-.008.149-.148.227-.34.196-.18-.028-.246.062-.078.109.075.02.078.031.028.074-.035.027-.082.149-.098.262-.027.191-.02.219.063.242.046.008.101.066.113.121.027.113.316.223.484.184.098-.028.113-.012.149.164.03.152.062.195.14.203.086.016.098-.004.098-.133 0-.082.031-.195.074-.254.07-.097.07-.113 0-.23-.047-.078-.062-.153-.043-.188a.4.4 0 0 0 .04-.187c0-.11.019-.14.1-.149.118-.015.364.211.364.344 0 .137.172.121.293-.027l.094-.114.062.211c.035.118.11.25.168.297s.09.082.067.082c-.016 0 .011.043.062.09.055.055.098.113.098.133 0 .086-.262.223-.422.223-.164 0-.465.148-.465.23 0 .05.164.05.2-.008.038-.066.109-.05.085.02-.015.039.02.097.09.14.106.07.11.086.047.118-.047.027-.094.027-.125 0-.086-.067-.344.062-.344.168 0 .054-.031.09-.074.09-.098.003-.293.304-.258.394.012.039-.031.129-.12.219-.114.117-.142.175-.134.316l.008.164-.098-.12c-.113-.134-.523-.231-.523-.126q0 .052-.117.027c-.176-.043-.328.121-.328.364 0 .25.105.41.27.41.07 0 .144-.024.16-.063a.3.3 0 0 1 .136-.086c.086-.027.094-.02.07.157l-.027.18.14-.032c.126-.023.141-.016.141.082 0 .172.043.254.145.254.05 0 .14.043.191.094.098.094.114.094.215.023.137-.09.16-.09.16-.008 0 .04.024.07.043.07.028 0 .047-.019.047-.042 0-.09.426.011.586.136.09.07.215.13.277.13a.34.34 0 0 1 .204.097c.097.105.109.152.042.191-.02.012-.043.059-.043.098 0 .059.036.066.196.043.152-.02.199-.012.222.035.012.043.086.07.176.07.188 0 .371.075.406.168.028.067-.05.204-.183.34-.074.078-.113.235-.117.504 0 .13-.02.145-.125.145-.153 0-.399.203-.399.316 0 .051-.062.172-.14.27-.11.136-.164.172-.246.156-.11-.031-.176.039-.11.117.055.067-.035.211-.129.211-.035 0-.09.04-.12.09-.032.047-.083.09-.122.09s-.066.043-.066.11a.5.5 0 0 1-.075.226c-.058.093-.062.12-.011.152.043.027.039.055-.02.137-.11.164-.094.46.031.547l.098.07h-.117c-.102.004-.262-.113-.262-.188 0-.02-.043-.074-.094-.125-.074-.074-.085-.128-.07-.265.016-.098.004-.188-.023-.203-.024-.016-.02-.043.015-.067.043-.027.059-.129.055-.36-.012-.214.008-.374.05-.46.036-.078.079-.36.095-.648l.03-.516-.116-.074a1 1 0 0 1-.457-.797c-.004-.156.02-.23.078-.285.101-.094.105-.246.015-.418-.058-.11-.097-.137-.222-.137-.121 0-.164-.02-.207-.125-.051-.094-.098-.125-.25-.145-.102-.015-.215-.05-.243-.078-.03-.03-.101-.05-.16-.05-.203 0-.468-.176-.629-.41a7 7 0 0 0-.273-.364c-.164-.191-.203-.078-.063.18l.122.215-.18-.203c-.102-.11-.184-.239-.184-.293 0-.055-.05-.118-.113-.153-.062-.031-.11-.078-.11-.105a.8.8 0 0 0-.09-.219c-.066-.121-.09-.25-.09-.477 0-.18.02-.312.048-.312.101 0 .035-.18-.09-.246a.6.6 0 0 1-.211-.235 1 1 0 0 0-.102-.187.4.4 0 0 1-.062-.113c-.106-.266-.293.945-.293 1.883 0 2.12.832 4.062 2.422 5.656.27.27.66.613.871.765.207.153.398.29.422.313.027.015.125.082.223.14.097.06.187.118.199.13.101.117 1.066.57 1.468.69.133.048.282.098.332.122.215.098.918.203 1.618.246.797.04 2.195-.094 2.562-.25.051-.02.25-.082.445-.133.196-.055.375-.117.395-.14a.2.2 0 0 1 .11-.04c.14 0 1.476-.671 1.511-.765.008-.02.04-.035.067-.035.164-.008 1.261-.938 1.753-1.496.301-.332.813-1.051.813-1.13 0-.073-.223-.058-.379.02-.07.035-.21.078-.312.094l-.184.023-.066-.289c-.079-.351-.051-.445.171-.562a.9.9 0 0 0 .27-.223c.07-.097.137-.136.227-.136.07 0 .152-.032.183-.067.031-.039.11-.07.184-.07.097 0 .129.023.129.09 0 .097.187.246.261.207.028-.02.055-.106.075-.196s.043-.175.062-.187a.4.4 0 0 0 .063-.117c.027-.082.011-.094-.075-.075-.078.012-.125-.011-.183-.093-.04-.07-.117-.117-.176-.117-.09 0-.09-.004.016-.063.097-.05.132-.043.273.027a1 1 0 0 0 .207.078c.059 0 .227-.687.324-1.293.102-.652.11-1.816.02-2.503-.09-.66-.125-.747-.309-.747a.4.4 0 0 0-.187.036c-.106.066-.457.511-.434.55.012.02.078.036.149.036.144 0 .203.097.132.222-.02.047-.03.114-.015.149a.23.23 0 0 1-.024.156c-.066.125-.36.41-.422.41-.054 0-.25.23-.25.293 0 .02.032.066.067.11.058.062.058.081 0 .16-.063.078-.063.078-.067-.032 0-.109-.117-.265-.199-.265-.023 0-.07-.032-.117-.07-.059-.055-.098-.06-.172-.016-.129.07-.105.246.035.234.102-.012.125.027.059.102-.024.023-.024.136.008.273l.05.23-.164.165c-.09.093-.164.187-.164.207 0 .015-.039.035-.078.035-.156 0-.418.098-.445.16-.012.04.02.125.074.195.121.176.117.254-.039.332-.121.067-.133.063-.2-.043-.1-.152-.202-.14-.202.028 0 .094.043.18.133.273.148.149.18.242.054.164-.156-.097-.32-.414-.32-.613 0-.152-.02-.2-.086-.215-.047-.015-.098-.074-.117-.137-.07-.296-.23-.328-.492-.105a5 5 0 0 1-.258.203c-.09.066-.117.117-.117.254 0 .094-.02.18-.043.195-.059.035-.313-.511-.313-.668 0-.062-.023-.113-.055-.113-.039 0-.097-.039-.144-.09a.3.3 0 0 0-.172-.086 1 1 0 0 1-.273-.07 1.3 1.3 0 0 0-.32-.066.26.26 0 0 1-.227-.118c-.102-.144-.2-.105-.16.067.046.187.105.23.308.23.285 0 .336.094.168.305a.8.8 0 0 1-.262.203c-.07.023-.171.059-.226.086-.125.059-.235.012-.235-.098 0-.05-.043-.113-.09-.14a.19.19 0 0 1-.09-.157c0-.058-.046-.14-.109-.191a.6.6 0 0 1-.16-.203c-.062-.133-.176-.156-.176-.031 0 .043.07.214.157.379.086.164.156.32.156.343s.059.106.129.176c.105.11.168.129.332.129.113 0 .207.004.207.016 0 .007-.05.113-.113.238a.75.75 0 0 1-.243.312.6.6 0 0 0-.203.211c-.074.149-.086.426-.02.426.024 0 .044.055.044.121 0 .082-.059.172-.184.285-.152.145-.18.192-.164.309.016.098 0 .152-.05.18-.048.02-.09.097-.106.172-.043.222-.242.398-.5.43l-.227.03-.035-.171a.8.8 0 0 0-.094-.258.43.43 0 0 1-.062-.215.6.6 0 0 0-.09-.27c-.07-.12-.082-.175-.043-.304.07-.239.05-.465-.047-.586a.5.5 0 0 1-.09-.313v-.203l-.226-.07c-.164-.055-.242-.063-.274-.031-.066.066-.535.062-.671-.004-.063-.028-.126-.086-.137-.133-.02-.047-.047-.082-.067-.082-.023 0-.086-.078-.136-.172-.07-.148-.082-.23-.063-.461.027-.238.055-.312.203-.488.098-.117.172-.223.172-.239s.07-.097.156-.175c.11-.106.192-.14.262-.125a.54.54 0 0 0 .254-.047c.086-.04.227-.074.316-.082.176-.02.211.015.211.21 0 .067.028.11.07.11.036 0 .106.04.153.086.11.11.293.117.348.016.035-.063.066-.067.168-.024.074.028.234.059.355.07.223.028.223.028.3-.128.122-.254.102-.293-.1-.262-.212.035-.403-.066-.403-.211 0-.082.023-.086.305-.074.277.011.297.008.308-.09.016-.094 0-.106-.207-.168-.05-.02-.047-.035.02-.086.082-.059.082-.062.008-.094-.118-.039-.29.051-.286.149.008.058-.027.086-.113.093-.144.016-.2.079-.223.254l-.011.133-.082-.14a.7.7 0 0 1-.074-.262c0-.063-.028-.11-.063-.11-.031 0-.113-.054-.187-.12-.114-.106-.13-.11-.145-.036-.012.055.04.133.125.211.074.067.11.125.078.125-.09 0-.297-.176-.297-.246 0-.09-.136-.121-.222-.047a.23.23 0 0 1-.13.067c-.081 0-.316.246-.316.332s-.027.097-.277.132l-.207.032.008-.223.011-.227h.422v-.18c0-.12-.023-.19-.066-.202-.04-.02-.059-.047-.047-.067.016-.02.055-.027.086-.015.031.015.129-.059.223-.16.09-.098.21-.2.27-.223.081-.031.112-.074.112-.164.004-.114.008-.117.063-.051.043.062.121.082.328.082.274 0 .32-.031.32-.227 0-.14.133-.308.243-.308.113 0 .171-.09.117-.176-.028-.039-.063-.039-.153 0-.093.043-.132.043-.183-.004-.102-.078-.086-.219.043-.383.14-.187.152-.343.011-.32-.062.008-.105.059-.128.133a.5.5 0 0 1-.102.199.23.23 0 0 0-.07.145.2.2 0 0 1-.055.128c-.035.036-.035.067.012.122.043.054.043.085.011.101-.027.02-.062.11-.082.203-.015.086-.046.176-.07.188-.043.031-.129-.125-.129-.242 0-.106-.168-.13-.258-.04q-.046.047-.058.036c-.04-.325-.035-.332.187-.504.125-.098.22-.211.22-.258s.023-.086.042-.086c.027 0 .086-.074.125-.168.09-.191.227-.344.36-.39.054-.012.093-.047.093-.07s.063-.04.14-.04c.118 0 .137.012.114.094q-.024.087.05.117c.306.098.61.332.567.434-.027.085-.078.085-.277 0-.195-.082-.29-.02-.152.093.05.047.093.121.093.168 0 .04.032.086.067.102.101.039.324-.082.355-.192.016-.058.055-.105.09-.105q.065 0 .066-.129c0-.074.02-.144.043-.16.028-.016.032.027.02.113-.035.156.062.188.144.043a.6.6 0 0 1 .157-.137c.093-.05.097-.05.047.016a.25.25 0 0 0-.047.172c.02.125.125.168.125.047 0-.043.05-.137.113-.203.078-.09.137-.114.215-.09.086.02.117.004.14-.067.02-.074.043-.085.137-.05.059.023.106.027.106.011 0-.02.023.004.05.043.055.094.172.106.172.02 0-.031-.03-.086-.066-.117-.094-.075-.078-.356.02-.485.105-.144.19-.09.132.082-.031.09-.031.157 0 .22.055.097.063.444.012.523-.016.027-.066.054-.105.074-.149.054-.083.117.117.113.152 0 .203-.023.238-.102.043-.085.043-.085.094.028.054.14.136.172.136.054 0-.125-.101-.437-.164-.511a.24.24 0 0 1-.058-.125.5.5 0 0 0-.067-.156c-.07-.106-.047-.25.04-.25.101 0 .167.074.136.148-.02.05-.004.074.063.074.066 0 .113.07.21.313.07.168.153.304.176.297.082-.032.075-.254-.02-.368a.4.4 0 0 1-.093-.199c0-.039-.039-.11-.09-.152-.05-.051-.086-.125-.078-.176.008-.078.043-.094.203-.094.18 0 .25-.066.145-.133-.098-.058-.035-.148.117-.18a.8.8 0 0 0 .25-.09c.05-.034.148-.046.258-.034.14.023.176.011.176-.043 0-.04.043-.102.097-.137.117-.086.168-.09.168-.02 0 .126.074.18.164.13.07-.036.106-.028.168.039.074.082.063.18-.027.18-.02 0-.117.077-.219.179-.098.094-.219.187-.27.2-.105.034-.109.155-.003.155.05 0 .164-.058.261-.129.16-.117.204-.125.352-.09.23.055.55.051.55-.003 0-.028.06-.047.13-.047.113 0 .125.015.109.11-.027.12.105.382.191.382.032 0 .063-.027.075-.059.011-.039.07-.054.16-.039.074.008.137 0 .137-.023 0-.098-.77-1.266-.887-1.352a.3.3 0 0 1-.074-.097c-.063-.114-.547-.61-.883-.907A8 8 0 0 0 18.01.578a4 4 0 0 1-.335-.133 4 4 0 0 0-.688-.199 3 3 0 0 1-.27-.066c-.46-.172-2.323-.235-3.198-.11m-.957 1.485c.011.023-.024.05-.075.058-.058.008-.11.051-.117.098-.012.07 0 .082.086.055.234-.07.504-.082.59-.016.082.059.058.074-.262.176-.426.129-.512.238-.152.191.133-.02.258-.05.285-.07.043-.047.2-.055.2-.016 0 .016-.048.067-.11.117-.113.09-.153.215-.063.215.028 0 .11-.05.188-.11.168-.128.34-.175.426-.12.054.039.054.05-.004.113a.5.5 0 0 1-.188.098c-.074.02-.117.058-.117.113 0 .043.02.082.043.082.016 0 .008.184-.027.41-.051.297-.055.434-.02.508.043.09.031.113-.082.184-.148.086-.172.195-.066.28.097.083.078.134-.047.134-.137 0-.149.129-.02.164.047.015.086.031.086.047 0 .046-.254.23-.32.234-.04 0-.086.023-.102.047a.9.9 0 0 1-.21.164c-.188.121-.34.273-.344.348 0 .023-.036.152-.075.289-.074.25-.078.254-.203.207-.066-.028-.125-.063-.125-.078 0-.016-.031-.067-.07-.102a.34.34 0 0 1-.074-.168 1 1 0 0 0-.09-.25c-.074-.144-.074-.16-.004-.348.066-.18.066-.207.008-.277-.043-.05-.063-.125-.047-.223.016-.105.008-.144-.047-.144-.035 0-.078.027-.086.055-.015.03-.027-.028-.027-.13-.004-.183-.153-.593-.211-.593-.016 0-.14.035-.274.078-.234.074-.246.074-.304-.012-.09-.117-.078-.14.093-.172.25-.05.184-.207-.09-.207-.167 0-.167-.07.005-.18.128-.09.152-.128.14-.238-.015-.105.02-.168.207-.355.215-.215.242-.227.461-.227.18 0 .235.016.25.075.024.09.184.105.227.03.02-.026-.012-.093-.059-.148-.086-.086-.09-.105-.027-.16.039-.035.129-.043.226-.031.18.031.285 0 .285-.082 0-.113.27-.207.332-.113M10.02 3.988c.027-.008.14.028.253.082.16.078.204.125.223.239a.4.4 0 0 0 .152.242c.157.12.29.261.29.312 0 .067-.11.067-.157.004-.031-.039-.082-.058-.125-.039-.074.031-.074.04.012.18q.155.253.05.183c-.027-.015-.081-.015-.12-.003-.063.027-.063.039.007.117.075.082.075.086-.003.086-.102 0-.16-.04-.223-.153a.2.2 0 0 0-.172-.09c-.164-.003-.187-.082-.059-.164.082-.058.106-.117.114-.312.011-.277-.086-.426-.25-.371a.8.8 0 0 1-.313-.043c-.328-.113-.344-.242-.027-.348.16-.058.183-.055.234.016.031.047.082.07.114.062m90.57 2.094v2.785h4.09v-5.57h-4.09Zm128.07 0v2.785h4.09v-5.57h-4.09Zm15.207 8.09v4.012h-5.691v3.742h5.691V34.57c0 7.602.02 13.004.047 13.54.285 5.78 2.106 8.581 6.18 9.488 1.289.285 2.383.379 4.758.414 1.32.02 2.05.008 2.425-.028a22.6 22.6 0 0 0 3.645-.714c.48-.137 1.59-.493 1.613-.52.02-.012-.969-3.5-.996-3.531-.008-.016-.34.082-.742.207-.93.293-1.395.426-2.125.586-1.207.27-1.473.293-3.219.293-1.644-.004-2.16-.035-3.176-.207-2.523-.418-3.75-1.567-4.222-3.961-.258-1.293-.246-.387-.258-14.899l-.02-13.312h12.188v-3.742H247.69V10.16h-3.824ZM81.934 17.207q-3.345.222-6.637 1.805c-1.488.715-3.074 1.672-5.2 3.14-.421.297-.777.532-.792.532-.012 0-.024-1.012-.024-2.25v-2.25h-3.957V57.27h3.957V26.36l1.04-.653c3.761-2.387 5.69-3.41 7.765-4.129 1.785-.613 3.25-.836 4.996-.762 2.547.114 4.316.766 5.613 2.063 1.13 1.137 1.825 2.766 2.16 5.05.243 1.688.235.891.25 15.688l.016 13.653h3.863V44.53c-.004-12.101-.023-14.906-.132-16.187-.317-3.762-1.274-6.324-3.04-8.153-1.14-1.171-2.367-1.89-4.12-2.421-1.579-.48-3.774-.696-5.758-.563m76.511-.023c-3.777.214-6.617 1.171-9.14 3.09-.68.515-1.961 1.824-2.516 2.566-2.351 3.156-3.586 7.078-4.008 12.723-.074.992-.07 4.699 0 5.66.172 2.21.41 3.785.813 5.343.781 3.02 1.976 5.301 3.734 7.11 1.813 1.867 4.008 3.066 6.902 3.77 1.696.41 3.301.6 5.547.652 3.852.09 8.262-.477 11.332-1.461.786-.25 1.043-.371 1.016-.469-.012-.047-.191-.813-.39-1.707-.2-.895-.383-1.64-.395-1.664-.012-.016-.149.012-.293.058-.742.258-2.926.766-4.59 1.067-2.531.457-4.074.566-6.3.45-3.962-.212-6.708-1.075-8.684-2.743a12 12 0 0 1-1.465-1.492c-1.961-2.524-3.02-6.364-3.184-11.602l-.015-.43h25.82v-1.46c0-7.239-1.25-12.286-3.848-15.512-1.797-2.23-4.414-3.555-7.668-3.887-.5-.047-2.183-.09-2.668-.062m1.543 3.207c4.32.609 7.059 3.87 8.012 9.55.227 1.364.36 2.848.36 4.094v.727h-21.536l.031-.414c.016-.223.07-.703.122-1.063.382-2.894 1.125-5.32 2.222-7.293 1.914-3.433 4.793-5.363 8.461-5.668.586-.05 1.73-.02 2.328.067m51.063-3.203c-.133.011-.543.046-.91.082-5.106.535-8.645 2.984-9.918 6.867-.164.5-.34 1.285-.426 1.933-.078.543-.082 2.383-.008 2.922.254 1.828.832 3.281 1.84 4.621.371.492 1.469 1.582 2.016 2 .917.7 2.023 1.375 3.27 2 .827.414 1.515.727 3.6 1.63 2.215.952 3.2 1.405 4.012 1.85 1.348.731 2.18 1.329 2.973 2.134 1.05 1.058 1.598 2.097 1.852 3.5.09.503.105 1.656.02 2.117-.235 1.34-.958 2.562-2.028 3.468-1.512 1.274-3.535 2.055-6.227 2.403-.777.097-3.539.117-4.293.023-2.39-.297-4.41-.742-7.086-1.57-.246-.07-.445-.129-.449-.125-.047.059-.86 3.535-.836 3.562.04.04 1.027.333 1.746.524 1.86.492 3.91.836 6.227 1.039.867.074 4.332.082 5.023 0 2.61-.285 4.442-.77 6.18-1.64 1.336-.665 2.379-1.45 3.215-2.419 1.191-1.379 1.883-2.968 2.199-5.027.113-.719.113-2.715 0-3.379-.48-2.898-1.922-4.965-4.754-6.812-1.316-.864-2.7-1.547-5.926-2.957-2.59-1.133-3.922-1.805-5.047-2.54-2.183-1.437-3.312-2.972-3.656-4.984-.074-.453-.086-.652-.066-1.36.027-.898.09-1.269.34-1.98.617-1.734 1.976-3.062 3.879-3.793 1.289-.496 2.769-.683 4.683-.597 2.383.105 4.375.453 6.758 1.175.441.133.8.243.805.235.035-.043.78-3.34.761-3.387-.023-.055-.863-.328-1.875-.605a28.5 28.5 0 0 0-5.25-.895 31 31 0 0 0-2.644-.015m-18.41.136c-1.23.113-2 .238-2.825.457-3.058.813-5.695 2.653-7.28 5.078l-.302.465v-5.187h-4.004v39.308h4.004V27.97l.508-.758c2.403-3.606 5.504-5.77 8.875-6.2.492-.066.82-.073 1.824-.05 1.45.031 2.356.133 3.465.39.203.051.383.075.395.067.02-.016.808-3.426.808-3.48 0-.028-1.039-.293-1.464-.375-1.043-.2-1.903-.27-3.028-.262a19 19 0 0 0-.976.023M30.418 31.586c0 8.144.016 13.71.043 14.184.246 4.421 1.246 7.378 3.156 9.37.73.762 1.348 1.231 2.235 1.704 2.457 1.3 6.113 1.617 9.707.847 1.66-.359 3.222-.941 5.023-1.867 1.324-.676 2.074-1.133 4.613-2.781a14 14 0 0 1 .72-.453c.015 0 .026 1.05.026 2.34v2.34h3.735V18.184H55.94v30.515l-.964.617c-2.758 1.754-4.848 2.871-6.918 3.692-3.13 1.238-5.555 1.547-8.051 1.023-3.153-.664-4.828-2.718-5.383-6.613-.238-1.66-.25-2.316-.25-16.3V18.183h-3.957Zm70.262 6.14V57.27h4.09V18.184h-4.09Zm9.808-19.199c.059.192 2.832 8.98 6.172 19.532l6.067 19.187 3.191.012 3.2.012 6.796-19.485c3.742-10.719 6.809-19.515 6.824-19.547.012-.043-.406-.054-2.008-.054-1.882 0-2.023.003-2.054.074-.246.652-10.188 29.312-11.215 32.355-.777 2.309-1.426 4.188-1.441 4.168-.106-.12-6.168-19.992-11.137-36.523-.024-.07-.172-.074-2.266-.074h-2.234Zm118.262 19.2V57.27h4.09V18.184h-4.09Zm33.762-19.489c.008.032 2.785 8.825 6.176 19.54l6.152 19.484 1.09.015 1.09.012-2.653 7.8c-1.46 4.286-2.656 7.825-2.656 7.852-.004.047.418.059 1.969.059h1.976l.043-.125c.113-.273 18.996-54.613 18.996-54.652 0-.024-.804-.04-2.09-.04-1.144 0-2.09.008-2.09.016 0 .028-10.355 30.196-11.433 33.305-.547 1.578-1.004 2.855-1.02 2.832-.097-.106-2.835-8.906-6.671-21.465-2.418-7.918-4.422-14.465-4.446-14.547l-.05-.14h-2.2c-1.746 0-2.199.011-2.183.054M14.578 19.313c-.262.101-.32.527-.098.765.079.082.145.11.297.11.106 0 .223-.028.258-.06.473-.386.106-1.042-.457-.816m-2.894.036a.5.5 0 0 0-.149.18c-.062.12-.062.167-.012.312.11.344.438.457.7.234.12-.097.14-.144.14-.336 0-.297-.133-.441-.41-.441a.64.64 0 0 0-.27.05m5.743-.019c-.04.008-.106.086-.149.164-.226.426.29.899.657.606a.5.5 0 0 0 .148-.243c.031-.187-.05-.457-.16-.511-.082-.047-.356-.055-.496-.016m-8.645.125a.387.387 0 0 0 .098.625c.297.14.594-.035.594-.36 0-.257-.121-.374-.38-.374-.152 0-.222.023-.312.11m11.48-.02c-.093.074-.116.132-.116.285 0 .164.023.21.14.312.11.09.176.114.27.094.347-.066.48-.344.3-.629-.082-.137-.113-.152-.285-.152a.5.5 0 0 0-.308.09m-5.809 1.91c-.379.125-.668.367-.828.703-.105.226-.117.289-.098.633.02.324.04.414.141.586.152.234.289.363.559.496l.195.105-.184.051c-.101.027-.258.11-.351.176-.196.14-.5.468-.5.523 0 .028-.051-.02-.11-.101-.207-.282-.468-.47-.87-.618-.106-.043-.106-.046.09-.136.237-.11.495-.336.589-.52.117-.238.172-.601.121-.86-.059-.312-.152-.491-.379-.702-.5-.465-1.41-.45-1.84.047-.222.257-.316.511-.316.882 0 .27.023.364.148.61.157.312.43.562.668.61.133.026.133.03-.078.089-.433.129-.75.418-.96.871l-.114.258-.078-.164a1.3 1.3 0 0 0-.563-.598c-.172-.09-.27-.11-.625-.11-.398 0-.433.012-.66.15-.281.175-.367.26-.515.562-.09.175-.114.285-.114.562 0 .434.094.707.324.95.653.663 1.797.484 2.168-.344.075-.16.079-.164.11-.067.094.328.41.746.664.887l.11.055-.243.199c-.133.105-.242.21-.242.234s-.027.067-.059.098c-.062.066-.195.371-.222.504-.008.066-.047.02-.141-.172-.258-.52-.57-.711-1.156-.711-.453.004-.696.094-.961.375a1.2 1.2 0 0 0-.352.855c0 .872.742 1.477 1.57 1.286.395-.094.864-.5.942-.82.02-.067.047-.122.062-.122.016 0 .063.114.106.246.105.328.324.586.746.871.05.04.05.055.008.075-.137.05-.434.32-.55.48-.2.293-.274.567-.25.977.015.258.05.425.12.574.113.234.418.555.649.68.183.101.191.136.058.18-.058.019-.18.09-.265.16-.762.597-.665 2.085.164 2.488.109.05.207.11.218.129.012.015-.086.097-.218.172a1.5 1.5 0 0 0-.582.656c-.067.144-.086.277-.086.644 0 .434.007.485.125.68.168.281.41.508.668.633l.21.097-.19.09c-.255.11-.595.461-.716.723-.133.3-.129.926.008 1.223q.264.564.961.812c.078.031.066.04-.062.074-.286.082-.618.336-.797.602l-.164.262v.511c0 .598.058.75.394 1.055.184.176.531.367.66.375.032 0-.043.04-.172.09-.261.101-.578.383-.687.617-.04.086-.102.215-.133.29-.039.073-.062.273-.062.487.004.297.027.407.125.61.152.312.437.582.726.683.418.153.414.149.219.184-.41.078-.8.422-.965.852-.125.332-.113.796.035 1.109.215.457.762.824 1.235.824.375 0 .855-.203 1.078-.453.176-.195.328-.48.355-.668l.031-.191.098.3c.098.301.16.395.422.645.559.527 1.441.469 1.973-.129.27-.29.34-.488.34-.957 0-.34-.02-.438-.114-.629a1.6 1.6 0 0 0-.262-.363c-.171-.153-.476-.32-.59-.32a.3.3 0 0 1-.144-.04c-.039-.027.02-.062.195-.117.16-.05.332-.148.47-.273.222-.203.444-.582.444-.758 0-.059.024-.105.043-.105.028 0 .047.046.047.093 0 .137.168.461.34.664.164.196.512.375.817.43l.199.031-.258.055c-.445.094-.71.27-.93.617-.129.207-.144.27-.16.656-.02.383-.008.45.094.668.355.782 1.266 1.055 2.008.61.336-.2.504-.422.629-.832.101-.34.058-.696-.13-1.055-.163-.316-.577-.613-.945-.664-.242-.035-.234-.047.207-.176.54-.156.93-.707.93-1.308 0-.414-.133-.758-.39-1.024-.204-.203-.497-.363-.665-.367-.058 0-.101-.023-.101-.047 0-.023.039-.043.094-.043.117 0 .468-.2.648-.367.074-.074.203-.258.285-.41.133-.242.145-.305.145-.649 0-.32-.016-.41-.114-.601-.21-.407-.55-.696-.921-.778l-.16-.035.195-.054c.484-.137.863-.579.988-1.16a1.41 1.41 0 0 0-.832-1.583c-.14-.062-.23-.113-.191-.113.12 0 .5-.223.675-.39.524-.512.547-1.485.04-2.008-.13-.133-.481-.383-.587-.418-.042-.012.02-.063.16-.137a1.4 1.4 0 0 0 .676-.691c.102-.215.122-.317.122-.633 0-.317-.024-.418-.118-.625a1.75 1.75 0 0 0-.687-.723l-.188-.098.207-.093a1.53 1.53 0 0 0 .672-.672c.098-.192.114-.278.114-.688 0-.402-.016-.492-.102-.668a1.5 1.5 0 0 0-.578-.609l-.195-.117.136-.059c.36-.148.692-.656.782-1.176l.035-.199.05.246c.055.254.215.543.391.715.328.313.996.41 1.438.203.8-.375.984-1.48.355-2.097-.262-.258-.527-.356-.934-.356-.515 0-.785.137-1.117.563-.058.07-.136.316-.16.48-.012.082-.031.05-.07-.125-.094-.41-.348-.789-.672-.992l-.102-.067.192-.12c.23-.149.504-.505.582-.75.058-.204.101-.22.144-.055.11.433.676.816 1.215.816.219 0 .676-.125.676-.187 0-.016.027-.036.059-.036.085 0 .363-.308.48-.535.148-.28.152-.863.008-1.16-.2-.43-.512-.664-.973-.75-.32-.058-.762.004-.93.137-.253.191-.378.336-.484.55l-.129.247-.082-.227c-.113-.332-.527-.8-.7-.8-.026 0-.05-.02-.05-.04 0-.023-.101-.07-.226-.097l-.223-.059.223-.098c.816-.367 1.02-1.421.386-2.046a1.303 1.303 0 0 0-1.789-.055c-.289.258-.37.457-.37.922 0 .304.019.426.105.61.12.26.418.53.664.605l.175.05-.195.075a3 3 0 0 0-.348.148c-.171.094-.535.45-.535.523 0 .028-.105-.066-.226-.207a1.6 1.6 0 0 0-.688-.468l-.172-.075.196-.09c.445-.199.68-.593.675-1.124-.003-.746-.503-1.286-1.21-1.32-.16-.009-.336 0-.399.023m2.059 5.293c.093.101.23.21.3.238l.13.05-.196.13c-.203.14-.398.367-.46.535-.036.09-.052.082-.157-.106a2 2 0 0 0-.324-.379l-.203-.175.144-.102a1.4 1.4 0 0 0 .418-.414c.074-.117.086-.121.129-.043.023.043.121.164.219.266m-2.672.191.168.125-.102.067c-.164.109-.383.34-.457.488l-.07.129-.137-.203a1.5 1.5 0 0 0-.332-.348c-.18-.129-.191-.148-.12-.191.042-.02.19-.157.327-.29l.246-.246.153.176c.082.094.23.227.324.293m-.195 2.594c.082.094.214.21.3.265.172.106.188.153.063.196-.121.039-.41.324-.528.523l-.105.168-.133-.203c-.144-.219-.46-.512-.555-.512-.113 0-.054-.078.157-.214.199-.133.492-.461.5-.56 0-.026.035 0 .078.063.039.059.14.184.223.274m2.773-.125a.4.4 0 0 1 .082.125c0 .023.117.117.27.215l.265.175-.137.07c-.187.098-.488.376-.488.45 0 .035-.02.063-.043.063-.02 0-.047.039-.058.09-.032.128-.106.109-.168-.047-.051-.133-.332-.415-.547-.555l-.117-.078.168-.11c.168-.113.414-.363.535-.539.058-.097.07-.097.11-.023.026.043.085.12.128.164m-2.988 2.629c0 .094.453.55.636.648l.172.09-.14.07c-.207.106-.614.52-.645.66-.043.16-.094.153-.18-.027-.097-.21-.48-.578-.648-.633-.125-.039-.102-.086.094-.195.226-.125.445-.344.55-.55.086-.157.16-.188.16-.063m3.153.375c.133.14.434.32.523.32.051.008.016.043-.085.094-.313.168-.567.41-.696.68l-.086.171-.074-.152a1.6 1.6 0 0 0-.574-.617c-.11-.059-.203-.121-.203-.133 0-.016.054-.05.113-.078.2-.094.414-.29.586-.527l.16-.235.117.188c.067.101.164.23.219.289m-3.113 2.52c.11.23.453.566.68.648l.167.062-.21.102c-.25.113-.551.43-.637.656-.031.094-.07.168-.082.168-.016 0-.063-.082-.11-.18-.097-.222-.406-.543-.617-.644-.187-.09-.176-.125.055-.242.2-.106.527-.453.59-.633.023-.07.054-.13.062-.13a.8.8 0 0 1 .102.192m2.824-.082c.031.121.5.649.578.649.027 0 .098.031.156.07l.102.074-.192.125c-.355.23-.59.496-.656.742-.031.122-.031.122-.144-.097a1.6 1.6 0 0 0-.653-.676l-.187-.094.246-.125a1.26 1.26 0 0 0 .59-.61c.09-.194.125-.206.16-.058m.055 2.903c.156.308.5.625.773.707.11.03.172.062.14.062-.1.012-.515.215-.62.317a1.7 1.7 0 0 0-.352.558l-.043.133-.098-.207a1.65 1.65 0 0 0-.691-.715l-.215-.11.149-.058c.359-.148.718-.523.78-.816.017-.067.032-.121.04-.121.004 0 .066.113.137.25m-2.828.09c0 .093.359.437.574.542l.254.125-.188.082c-.242.098-.59.442-.7.688l-.089.203-.105-.215c-.133-.261-.438-.566-.684-.683l-.191-.086.168-.059c.214-.07.66-.508.738-.723l.062-.164.079.133a.6.6 0 0 1 .082.156m2.921 2.891c.16.3.493.559.809.625l.152.031-.226.075c-.414.144-.797.5-.88.82-.042.172-.097.187-.124.043-.063-.324-.54-.8-.89-.895l-.141-.039.195-.058c.277-.086.598-.395.77-.743l.144-.292.047.128c.023.07.09.207.144.305m-2.96-.156c.05.12.109.222.128.222.016 0 .051.051.079.11.054.125.382.363.554.41.156.035.153.09 0 .129-.293.07-.59.387-.789.836l-.098.234-.035-.156c-.082-.383-.547-.848-.918-.922-.172-.031-.164-.086.024-.117.32-.055.746-.445.879-.816a.6.6 0 0 1 .066-.153c.004 0 .055.098.11.223m-.051 2.71c0 .114.234.505.383.638.167.156.457.308.585.308.153 0 .082.07-.101.102-.188.03-.582.308-.621.433-.02.047-.047.09-.067.09s-.082.11-.14.242l-.102.246-.07-.195c-.156-.402-.52-.738-.89-.824-.212-.05-.282-.094-.137-.094.171 0 .57-.219.75-.418.097-.11.214-.297.257-.422.078-.21.153-.265.153-.105m2.996.316c.195.301.633.63.836.63.043 0 .09.019.101.042.016.027-.015.047-.074.047-.152.004-.453.152-.633.312-.168.157-.379.551-.379.707 0 .055-.02.086-.047.07-.02-.01-.043-.07-.043-.124 0-.297-.488-.824-.863-.93-.222-.062-.3-.125-.164-.125.164 0 .492-.184.692-.379.156-.16.25-.32.359-.625.027-.074.039-.066.074.063.024.082.09.222.14.312M13.47 46.13c.12.375.453.684.894.828l.246.078-.203.059a2 2 0 0 0-.332.129c-.297.168-.64.644-.644.894 0 .055-.02.113-.043.125-.028.016-.047-.015-.047-.074 0-.164-.2-.543-.371-.719a1.16 1.16 0 0 0-.621-.347c-.207-.047-.282-.13-.125-.13.136 0 .457-.152.652-.308.203-.164.406-.457.45-.64.03-.153.073-.118.144.105"/><path style="stroke:none;fill-rule:nonzero;fill:#003f98;fill-opacity:1" d="M8.695 21.578c-.707.25-.957 1.188-.46 1.746.257.297.507.403.902.375.449-.031.754-.226.949-.613.098-.2.094-.672-.008-.906-.11-.239-.43-.547-.633-.606-.215-.058-.574-.058-.75.004m11.418 0c-.078.027-.148.067-.148.086 0 .023-.024.04-.055.04-.066 0-.242.179-.37.378-.11.18-.122.777-.009 1.004.094.2.317.41.559.535.156.078.246.098.512.078.27-.012.351-.035.515-.144.29-.2.442-.41.496-.692.14-.75-.336-1.343-1.062-1.332-.16.004-.363.028-.438.047m3.102.559a.7.7 0 0 0-.188.136c-.3.278-.035.856.375.856.18 0 .375-.125.438-.274.074-.183.023-.472-.106-.601-.109-.113-.386-.176-.52-.117m-17.276.062c-.114.055-.247.281-.247.414 0 .157.184.395.336.438.266.07.528-.043.625-.274.059-.132.059-.172-.007-.34a.44.44 0 0 0-.18-.238.8.8 0 0 0-.527 0m.07 2.778c-.504.18-.477.855.043 1.011.664.2.996-.718.367-.992-.227-.098-.211-.094-.41-.02m17.058.036c-.289.168-.328.636-.07.89.106.106.156.125.383.125.27 0 .402-.066.496-.254.066-.128.059-.5-.008-.628-.133-.235-.512-.297-.8-.133m.027 2.886c-.184.114-.239.215-.239.47 0 .167.024.23.125.327.239.242.743.22.88-.039.085-.168.081-.465-.008-.605a.563.563 0 0 0-.758-.153m-17.156.008c-.165.09-.247.23-.247.438 0 .312.192.492.52.492.215-.004.355-.082.437-.242.11-.215.086-.403-.085-.578-.125-.141-.176-.16-.34-.16a.7.7 0 0 0-.285.05m2.8 2.082a1.34 1.34 0 0 0-.781.606c-.094.156-.11.234-.11.601 0 .352.02.457.098.606.211.39.7.687 1.13.687.202 0 .609-.129.745-.23.645-.496.711-1.457.137-1.985-.285-.253-.836-.386-1.219-.285m11.41.008c-.441.137-.77.504-.851.95-.152.82.441 1.542 1.27 1.542.156 0 .292-.015.308-.039.012-.02.078-.05.148-.062.153-.032.524-.348.618-.532.09-.175.195-.52.195-.656 0-.23-.18-.68-.348-.86-.23-.241-.476-.355-.851-.374a2 2 0 0 0-.489.031m-14.191.758c-.137.05-.266.27-.266.453 0 .191.188.422.395.484a.486.486 0 0 0 .555-.222c.093-.16.093-.274 0-.469-.118-.246-.407-.348-.684-.246m17.188.016c-.168.074-.266.253-.262.484.004.152.035.207.152.305.45.375 1.031-.004.824-.532-.117-.285-.41-.39-.714-.257M8.8 32.89a1.13 1.13 0 0 0-.844.626c-.152.285-.152.867-.008 1.152.121.227.278.387.524.539.156.098.23.113.578.113.445 0 .664-.082.941-.343.582-.563.38-1.715-.36-2.02a1.9 1.9 0 0 0-.831-.066m11.187.078a1.28 1.28 0 0 0-.601.61c-.082.183-.098.276-.078.581.02.313.035.387.164.582.164.25.46.473.738.551.906.254 1.719-.504 1.535-1.438-.078-.386-.25-.632-.601-.855-.2-.129-.91-.145-1.157-.031m-14.015.707a.51.51 0 0 0-.282.41c0 .129.13.36.239.414.136.074.41.063.539-.023a.6.6 0 0 0 .187-.227c.067-.145.067-.164-.004-.324-.132-.293-.382-.387-.68-.25m17.165.015a.6.6 0 0 0-.188.176c-.215.399.254.852.676.649.441-.207.27-.914-.227-.914a.65.65 0 0 0-.261.09m-14.464 2.1a1.2 1.2 0 0 0-.8.922c-.134.808.429 1.484 1.241 1.48.61-.011 1.145-.5 1.192-1.09a1.2 1.2 0 0 0-.223-.855c-.219-.324-.48-.469-.906-.488a1.8 1.8 0 0 0-.504.031m11.492-.008c-.504.117-.844.61-.844 1.203 0 .29.02.371.137.575.07.128.164.257.203.277.043.023.102.07.137.101.133.13.45.227.738.227.383 0 .602-.078.836-.297.258-.234.352-.492.348-.953 0-.316-.02-.39-.137-.602a1.4 1.4 0 0 0-.309-.359c-.27-.187-.742-.258-1.109-.172m-14.16.746c-.215.082-.305.305-.227.578.059.215.2.305.461.297.25-.015.387-.168.387-.437 0-.11-.012-.227-.027-.27-.055-.144-.391-.242-.594-.168m17.035.106c-.176.175-.187.394-.023.61.105.132.136.144.351.144.192 0 .27-.024.367-.106.106-.094.125-.144.125-.34 0-.308-.144-.445-.468-.445-.184 0-.235.023-.352.137M8.656 38.68c-.261.09-.488.265-.644.508-.11.171-.117.222-.117.632 0 .407.007.465.117.63.543.835 1.726.784 2.183-.095.075-.136.094-.257.094-.511-.004-.426-.11-.68-.39-.922a1.21 1.21 0 0 0-1.243-.242m11.477.023c-.348.113-.528.266-.688.582-.324.633.024 1.465.7 1.688.27.09.457.09.707 0 .406-.137.648-.332.789-.621.12-.258.113-.825-.016-1.07a1.28 1.28 0 0 0-.766-.61c-.332-.094-.359-.094-.726.031m-14.258.809a.5.5 0 0 0-.094.316c0 .164.024.223.137.332.187.176.402.176.578 0a.51.51 0 0 0 .035-.648c-.078-.098-.125-.114-.328-.114s-.25.016-.328.114m17.215-.028c-.078.075-.098.145-.098.317 0 .191.02.246.13.36.175.175.386.175.581-.005.133-.125.14-.152.125-.36-.027-.284-.152-.394-.441-.398-.145 0-.23.024-.297.086M8.668 41.582c-.418.125-.738.527-.785.992-.043.485.137.88.515 1.14.176.118.274.15.532.169.41.039.668-.04.914-.258.433-.383.554-.965.304-1.465-.136-.273-.406-.504-.668-.578-.19-.05-.644-.055-.812 0m11.48.004c-.843.258-1.074 1.324-.421 1.98.191.2.261.243.488.286.547.117 1.062-.079 1.332-.508.105-.176.133-.274.144-.543.024-.367-.03-.555-.21-.817-.223-.3-.43-.41-.833-.43-.191-.007-.414.005-.5.032m-14.257.82c-.086.082-.11.149-.11.324 0 .235.055.313.29.407.187.07.449-.035.515-.211.062-.156.023-.442-.074-.547-.121-.133-.477-.117-.621.027m17.199-.023c-.078.07-.098.144-.098.324 0 .281.02.313.235.406.144.059.191.063.312.008.203-.082.273-.191.273-.41 0-.27-.144-.418-.421-.418-.149 0-.235.027-.301.09m-14.371 2.09a1.3 1.3 0 0 0-.434.246c-.8.699-.21 2.105.852 2.023.851-.07 1.347-.887 1.011-1.652-.101-.235-.425-.563-.585-.594-.063-.016-.157-.047-.215-.066-.141-.059-.348-.047-.63.043m11.52-.012c-.484.133-.715.371-.832.863-.058.258-.058.297.028.578.156.532.554.817 1.132.817.235.004.356-.024.5-.094a1.154 1.154 0 0 0 .293-1.852.9.9 0 0 0-.43-.273c-.374-.102-.437-.105-.69-.04m-14.188.72a.38.38 0 0 0-.254.422c.062.343.41.5.668.296.098-.074.117-.125.117-.308 0-.332-.215-.496-.531-.41m17.176.011c-.391.16-.243.801.187.801.356 0 .52-.496.238-.73-.14-.121-.257-.137-.425-.07M8.773 47.347c-.39.097-.644.343-.785.757-.09.274-.09.395 0 .649a1.1 1.1 0 0 0 .465.625c.18.121.274.148.516.164.441.031.648-.04.926-.316.289-.29.382-.59.3-.985-.097-.453-.37-.758-.808-.887-.282-.078-.301-.082-.614-.007m11.313.043c-.23.086-.387.214-.54.453-.12.191-.151.797-.05 1.066.094.246.414.535.668.613.711.207 1.418-.238 1.48-.937.04-.418-.05-.691-.3-.941-.125-.125-.278-.23-.387-.262-.234-.07-.656-.067-.871.008m-14.188.793c-.117.164-.09.379.055.53.074.071.176.13.223.13.34 0 .52-.375.312-.64-.074-.099-.125-.118-.308-.118-.172 0-.23.02-.282.098m17.211-.016c-.105.117-.101.426.016.543.203.207.484.156.61-.11.07-.148.07-.167-.016-.324-.078-.156-.102-.168-.309-.18-.176-.011-.242.005-.3.071m-11.532 1.809c-.504.125-.855.472-.973.976-.058.258-.058.324 0 .61.07.347.286.714.5.874.254.188.52.254.91.231.567-.031.97-.293 1.196-.777.152-.325.144-.848-.012-1.153-.215-.406-.504-.644-.914-.754-.312-.082-.398-.082-.707-.007m2.852.004a1.36 1.36 0 0 0-.723.45c-.516.625-.277 1.73.457 2.129.145.078.25.097.621.097.375 0 .477-.02.63-.097.284-.153.444-.309.605-.586.132-.23.144-.285.144-.633 0-.328-.016-.41-.129-.633-.195-.39-.476-.613-.902-.727-.293-.074-.395-.074-.703 0m2.8.02a1.3 1.3 0 0 0-.804.66c-.11.219-.13.297-.13.633 0 .332.02.414.13.64.148.286.324.465.62.622.153.082.259.101.606.101.383 0 .446-.015.657-.129.285-.156.46-.347.601-.632.145-.317.145-.891-.008-1.188a1.36 1.36 0 0 0-.57-.598c-.18-.105-.27-.125-.59-.136-.207-.004-.433.004-.512.027m-8.554.281c-.078.02-.254.145-.383.274-.2.203-.242.273-.29.496-.105.527.114 1 .579 1.238.215.113.281.125.535.11.332-.024.582-.137.778-.356.19-.211.238-.316.27-.578.058-.488-.302-1.074-.727-1.188a1.6 1.6 0 0 0-.762.004m11.504-.011a1.2 1.2 0 0 0-.64.539c-.11.207-.114.808-.009 1 .098.18.332.414.496.5.344.175.887.105 1.22-.16.608-.485.421-1.587-.317-1.864-.164-.058-.57-.066-.75-.015m-14.196.761c-.144.117-.164.395-.027.532.09.09.332.12.43.054.164-.105.191-.387.058-.562-.113-.14-.297-.153-.46-.024m17.257-.058c-.113.03-.215.261-.183.418.05.25.375.351.554.172.13-.13.125-.458-.008-.551-.097-.07-.207-.082-.363-.04m-11.695 1.93c-.363.09-.66.332-.836.668-.086.168-.106.27-.106.621 0 .403.008.438.153.672.293.485.617.676 1.164.684.289.004.375-.012.582-.121.316-.16.531-.364.664-.637.152-.312.152-.883 0-1.187a1.4 1.4 0 0 0-.613-.618c-.22-.105-.742-.152-1.008-.082m2.867 0c-.543.114-.98.688-.984 1.285 0 .5.316 1 .78 1.235.22.113.306.129.595.125.394-.004.668-.11.933-.363.262-.246.38-.508.399-.895.015-.32-.059-.719-.133-.719-.024 0-.04-.03-.04-.066 0-.106-.343-.426-.562-.52-.23-.101-.707-.14-.988-.082m2.895.004a1.3 1.3 0 0 0-.336.114c-.211.12-.512.44-.543.593-.016.07-.047.145-.07.157-.02.02-.04.19-.04.39 0 .313.02.403.13.621.14.285.327.469.644.64.183.099.265.118.554.118.434 0 .696-.113.985-.41.285-.29.375-.559.347-1.024-.054-.882-.75-1.382-1.671-1.199m-8.614.293c-.203.055-.449.278-.59.528-.093.171-.093.699 0 .918.106.234.383.46.668.546.309.09.364.09.637 0 .313-.105.445-.214.594-.476a1.03 1.03 0 0 0-.465-1.461c-.176-.082-.629-.11-.844-.055m11.356.051c-.207.098-.426.32-.508.516-.086.203-.082.656.004.863.152.363.578.633 1.004.633.37 0 .93-.332.93-.555 0-.031.023-.07.05-.078.04-.012.059-.14.059-.418 0-.387-.004-.406-.156-.613-.227-.313-.465-.43-.891-.43-.219.004-.387.027-.492.082m-14.094.719c-.105.11-.113.3-.016.437.102.149.383.14.504-.015a.43.43 0 0 0 .09-.2.4.4 0 0 0-.09-.195.34.34 0 0 0-.488-.027m17.219-.016c-.121.09-.137.367-.016.477.106.097.336.097.453 0 .117-.102.121-.371.008-.473-.101-.094-.316-.098-.445-.004m-11.7 1.848c-.32.097-.578.34-.746.699-.152.328-.156.809-.003 1.11.132.273.359.495.636.64.313.16.88.16 1.192.004.336-.176.554-.457.675-.875.094-.313.067-.563-.09-.902-.124-.278-.238-.399-.542-.579-.172-.101-.266-.117-.586-.132-.211-.004-.45.007-.535.035m2.875-.008c-.512.168-.88.691-.88 1.254.008.226.075.555.137.637.2.261.43.476.606.566.18.094.281.11.617.11.344 0 .426-.012.578-.106.48-.29.711-.68.707-1.207 0-.387-.094-.64-.34-.902s-.484-.364-.922-.38a2.7 2.7 0 0 0-.503.028m2.906.008c-.371.117-.73.433-.813.73-.027.098-.066.2-.09.219-.097.117.012.738.184 1.008.137.219.32.387.523.496.301.152.833.152 1.141 0 .266-.129.527-.399.656-.668.137-.285.137-.793.008-1.078a1.45 1.45 0 0 0-.61-.64c-.198-.095-.777-.134-1-.067m-8.652.347a1.01 1.01 0 0 0-.507 1.215c.254.746 1.28.957 1.77.364.253-.309.288-.872.085-1.207-.207-.336-.367-.422-.816-.442-.282-.012-.39 0-.532.07m11.36.055c-.11.078-.207.16-.211.184a.6.6 0 0 1-.086.105c-.04.04-.098.184-.129.32-.105.461.055.856.469 1.141.164.117.203.125.547.113.332-.02.386-.03.574-.164.57-.414.582-1.222.02-1.675-.157-.13-.2-.141-.575-.153-.398-.02-.41-.015-.61.13m-8.398 2.472c-.375.101-.629.308-.816.664-.082.144-.102.25-.102.558 0 .332.02.407.137.618.27.5.73.754 1.29.71a1.293 1.293 0 0 0 1.09-1.742 1.45 1.45 0 0 0-.536-.664c-.137-.086-.578-.215-.719-.21-.055 0-.21.03-.344.066m2.817.023a1.3 1.3 0 0 0-.77.637c-.09.184-.097.258-.086.621.012.387.024.422.184.668.176.273.46.488.766.57.25.07.675.028.91-.093.215-.11.515-.41.558-.559a.3.3 0 0 1 .082-.121c.032-.02.047-.195.047-.465 0-.375-.012-.465-.105-.617-.207-.36-.446-.543-.86-.664-.304-.09-.386-.086-.726.023m2.945-.023c-.625.152-.941.57-.937 1.242.004.781.468 1.273 1.191 1.273.441 0 .707-.105.988-.386.461-.461.504-1.11.11-1.684-.164-.234-.348-.351-.715-.445-.317-.078-.293-.078-.637 0m-8.633.316c-.406.11-.695.754-.562 1.254.07.254.383.555.648.633a.996.996 0 0 0 1.114-1.512c-.184-.293-.344-.375-.75-.387-.204-.011-.403 0-.45.012m11.317.059a.7.7 0 0 0-.223.18 2 2 0 0 1-.133.167c-.05.055-.066.18-.066.497 0 .402.008.433.133.609.207.289.386.39.718.41.547.035.88-.187 1.059-.715.086-.25.086-.324-.02-.61-.101-.273-.253-.456-.468-.562-.215-.097-.801-.09-1 .024m-8.547 2.55c-.094.02-.168.063-.168.083 0 .023-.027.043-.059.043-.11 0-.379.332-.472.578-.164.441-.102.965.16 1.328.133.176.25.258.55.363a1.33 1.33 0 0 0 1.43-.324c.168-.168.239-.32.297-.625.106-.578-.148-1.113-.648-1.371-.242-.121-.797-.16-1.09-.074m2.902-.008c-.523.156-.828.601-.82 1.222 0 .278.02.403.101.567.329.68 1.125.894 1.868.508.16-.09.332-.282.453-.516.152-.297.152-.836 0-1.133-.121-.226-.387-.515-.48-.515-.032 0-.06-.02-.06-.043 0-.114-.75-.176-1.062-.09m2.89 0c-.327.105-.66.398-.788.695-.09.223-.078.844.023 1.07.367.797 1.445.98 2.059.348.219-.223.238-.25.316-.488a1.23 1.23 0 0 0-.535-1.492c-.203-.122-.297-.149-.578-.164a2.2 2.2 0 0 0-.496.03m-8.63.372c-.265.137-.487.43-.5.64-.023.516.102.82.423 1.024.156.098.242.117.5.117.386.008.644-.121.844-.418.117-.172.132-.238.132-.512 0-.277-.015-.34-.14-.539-.188-.289-.434-.418-.797-.418a.87.87 0 0 0-.461.106m11.43-.004c-.106.055-.254.18-.332.273-.122.157-.137.215-.153.5-.02.364.063.586.293.805.156.148.469.281.66.281.215 0 .59-.183.774-.375l.156-.164v-.433c0-.465-.039-.575-.289-.801-.16-.152-.281-.188-.613-.188a1 1 0 0 0-.496.102m-8.454 2.492c-.062.027-.187.074-.277.113-.207.086-.52.426-.555.598-.011.074-.043.14-.062.152-.02.016-.04.16-.04.332 0 .512.25.938.688 1.172.145.078.258.098.582.098.356 0 .422-.016.602-.125.406-.242.61-.55.652-.992.043-.477-.175-.953-.535-1.176-.332-.203-.797-.281-1.055-.172m2.758.04a1.13 1.13 0 0 0-.695.6c-.105.212-.129.313-.129.571 0 .688.465 1.211 1.113 1.266.286.023.735-.059.735-.13 0-.023.027-.038.062-.038.11 0 .434-.375.52-.602.265-.707-.09-1.472-.778-1.687-.316-.094-.515-.094-.828.02m2.89-.009c-.28.102-.398.172-.526.329-.239.277-.286.402-.309.75-.027.445.066.73.316.988.235.238.457.347.79.375.683.062 1.23-.344 1.37-1.008.2-.945-.738-1.766-1.64-1.434m3.07.254c-.21.035-.469.203-.601.387-.125.176-.133.219-.133.563 0 .261.015.382.055.39.027.016.054.05.054.082 0 .074.328.367.473.422.062.027.234.047.387.047.328 0 .55-.113.761-.371.133-.164.137-.192.137-.59 0-.395-.004-.422-.137-.582a1 1 0 0 0-.289-.246c-.16-.086-.52-.133-.707-.102m-11.695.114c-.11.058-.262.18-.332.273-.129.16-.137.195-.137.535 0 .313.012.387.106.528.164.238.492.402.797.402.402.008.707-.168.87-.485.079-.152.098-.582.036-.718-.168-.352-.235-.442-.414-.528-.258-.14-.657-.14-.926-.007m2.992 2.804c-.082.024-.238.13-.348.23-.242.235-.32.516-.242.887.086.387.48.707.88.707.398 0 .8-.265.913-.613.16-.465.02-.87-.398-1.129-.164-.105-.602-.148-.805-.082m2.844.004c-.078.028-.145.067-.145.086 0 .024-.027.04-.062.04-.102 0-.324.304-.387.523-.098.351.098.832.414 1.027.516.312 1.277.027 1.414-.531.106-.43-.027-.809-.363-1.02-.242-.16-.617-.215-.871-.125m2.945-.012a.83.83 0 0 0-.629.649c-.105.726.211 1.137.867 1.137.383 0 .59-.098.79-.375.113-.164.128-.215.128-.516 0-.258-.023-.363-.09-.469-.14-.207-.214-.289-.273-.289-.031 0-.058-.015-.058-.039 0-.047-.391-.144-.528-.133a2 2 0 0 0-.207.035m-8.57.235a.7.7 0 0 0-.3.195c-.118.14-.134.188-.134.43 0 .195.024.312.094.422.098.156.387.328.555.328.191 0 .508-.18.62-.36.255-.378.04-.906-.402-1.02-.218-.054-.21-.054-.433.005m11.406.004c-.258.093-.387.281-.402.586-.016.246-.008.289.11.449.1.137.19.195.378.262.238.082.258.082.465.007.312-.113.414-.277.414-.656 0-.258-.016-.316-.121-.441-.207-.246-.524-.32-.844-.207"/></svg>