<svg xmlns="http://www.w3.org/2000/svg" width="352" height="460" style="shape-rendering:geometricPrecision;text-rendering:geometricPrecision;image-rendering:optimizeQuality;fill-rule:evenodd;clip-rule:evenodd"><path style="opacity:.945" d="M93.5-.5h255q1.185 1.352 3 2v456q-1.815.648-3 2H2.5q-1.185-1.352-3-2v-365zm8 12h239v436h-330v-346q44.503.25 89-.5a9.5 9.5 0 0 0 1.5-2.5q.75-43.497.5-87"/><path style="opacity:.98" d="M177.5 149.5q46.002-.25 92 .5l1.5 1.5a429 429 0 0 1-.5 50.5 1195 1195 0 0 1-84 1.5q.25 54.502-.5 109-11.017 42.99-55.5 39.5-34.608-7.607-40.5-42.5-2.433-33.894 27.5-49.5 32.982-12.705 57.5 12.5l1-121q1.076-.816 1.5-2"/></svg>