<svg version="1.0" xmlns="http://www.w3.org/2000/svg" width="666.667" height="800" viewBox="0 0 500 600">
    <path fill="#1E90FF" d="M56.1 2C31.4 8.5 11.6 27 3.2 51.5l-2.7 8v481l2.7 8c3.9 11.5 9.2 19.8 18.3 29.1 9.1 9.2 18.7 15.3 30.2 19.2l7.8 2.7h381l7.8-2.7c22.4-7.6 40.9-26.1 48.5-48.5l2.7-7.8.3-188.5.2-188.5-81.7-81.7L336.5 0 200 .1C68.3.1 63.2.2 56.1 2M300 125v75h150l-.2 165.2c-.3 150.1-.4 165.6-1.9 168.9-2.5 5.4-7.4 10.5-12.7 13.1l-4.7 2.3h-361l-4.7-2.3c-5.3-2.6-10.2-7.7-12.7-13.1-1.5-3.3-1.6-23.5-1.9-229.6-.2-146.4.1-228.3.7-232.5 1.7-10.9 9.6-19.2 19.7-20.9 2.7-.5 55.4-.9 117.2-1L300 50zm82-6.5 31.5 31.5H350v-31.5c0-17.3.1-31.5.3-31.5.1 0 14.4 14.2 31.7 31.5"/>
    <path fill="#1E90FF" d="M150 325v25h200v-50H150zm0 100v25h150v-50H150z"/>
</svg>