<svg version="1.0" xmlns="http://www.w3.org/2000/svg" width="114.667" height="150.667" viewBox="0 0 86 113"><path d="M10.5 1.9c-4.8 2.2-6.9 4.4-9 9.4C.2 14.4 0 21.4 0 56.5c0 38.9.1 41.8 1.9 45.3 2.5 4.9 6 8 10.2 9.2 1.9.6 16.2 1 31.9 1 27.6 0 28.7-.1 33-2.3 3.3-1.6 5.1-3.4 6.7-6.7 2.2-4.3 2.3-5.2 2.3-37.1 0-19-.4-33.9-1-35.3-1.2-3.3-23.3-25.7-28-28.5C53.8.2 52 0 34 0 17.2 0 13.9.3 10.5 1.9m39.8 8C51.7 11 52 13.2 52 21.5c0 8 .3 10.5 1.5 11.5 1 .8 5.6 1.5 11.8 1.7 5.6.3 10.8.9 11.5 1.5 2 1.7 1.7 58.9-.3 62.8-2.4 4.7-6 5.2-35.7 4.8-26.6-.3-26.6-.3-29.2-2.7L9 98.7V56.5c0-46.2-.1-45.7 6.1-47.2 1.6-.5 9.9-.8 18.3-.8 11.5 0 15.7.3 16.9 1.4"/><path d="M26.5 40.2c-3 1.7-4.4 4-4.5 7 0 4 .9 5.7 4.1 7.3 3.9 2.1 6.4 1.9 9.5-.9 7.3-6.3-.8-18.2-9.1-13.4m27.7 14.1c-.6.7-2.6 4.9-4.4 9.2-2.4 5.6-4.2 8.4-6 9.5-2.7 1.4-2.9 1.4-7.6-3.3-2.6-2.6-5.3-4.7-5.9-4.7C27.7 65 18 80.4 18 84.5c0 1.3 3.2 1.5 25 1.5 26.3 0 25.5.1 25-4.5-.4-3.6-6.2-20.9-8.3-24.8-2.2-3.9-3.7-4.6-5.5-2.4"/></svg>