<svg xmlns="http://www.w3.org/2000/svg" width="496" height="416" style="shape-rendering:geometricPrecision;text-rendering:geometricPrecision;image-rendering:optimizeQuality;fill-rule:evenodd;clip-rule:evenodd"><path style="opacity:.999" d="M3.5-.5h488q2.5 1.5 4 4v72q-1.224 2.466-4 3.5-9.987.75-20 .5v256q10.013-.25 20 .5 2.776 1.034 4 3.5v72q-1.5 2.5-4 4H3.5q-2.5-1.5-4-4v-72q1.225-2.466 4-3.5 9.987-.75 20-.5v-256q-10.013.25-20-.5-2.775-1.034-4-3.5v-72Q1 1 3.5-.5"/><path style="opacity:1" fill="#566872" d="M23.5 15.5q-.25 11.01.5 22Q28.75 50.25 41.5 55q219 .75 438 .5v8h-464v-48z"/><path style="opacity:1" fill="#74818a" d="M23.5 15.5h456v40q-219 .25-438-.5Q28.75 50.25 24 37.5a242 242 0 0 1-.5-22"/><path style="opacity:1" d="M31.5 31.5h48v16h-48zm64 0h48v16h-48zm64 0h48v16h-48zm64 0h48v16h-48zm64 0h48v16h-48zm64 0h48v16h-48zm64 0h48v16h-48z"/><path style="opacity:1" fill="#a9e4f8" d="M63.5 79.5q-.25 68.502.5 137 13.884 78.884 92.5 94.5 23.995.75 48 .5 43.706 16.3 87-1a6726 6726 0 0 0 164 1v24h-416v-256z"/><path style="opacity:1" fill="#ddf4fc" d="M63.5 79.5h392v232a6726 6726 0 0 1-164-1q65.75-31.174 68-104.5-4.162-75.126-73.5-103.5-75.44-23.424-127 36-42.67 60.385-8 126 19.92 31.326 53.5 47-24.005.25-48-.5-78.616-15.616-92.5-94.5a9384 9384 0 0 1-.5-137"/><path style="opacity:1" fill="#030303" d="M291.5 310.5q-43.294 17.3-87 1-33.58-15.674-53.5-47-34.67-65.615 8-126 51.56-59.424 127-36 69.338 28.374 73.5 103.5-2.25 73.326-68 104.5"/><path style="opacity:1" fill="#e0e0e0" d="M233.5 302.5q-64.825-18.33-81-84-4.893-51.462 34-85.5 53.65-39.084 112-7 59.475 42.74 39.5 113.5-29.517 68.895-104.5 63"/><path style="opacity:1" fill="#020101" d="M212.5 135.5a19 19 0 0 1 8 1.5l88 64q5.819 6.447 0 13l-88 64q-8.893 4.443-12.5-4.5a4420 4420 0 0 1 0-133q1.538-3.28 4.5-5"/><path style="opacity:1" fill="#fc4949" d="M223.5 159.5a2278 2278 0 0 1 66 48 4604 4604 0 0 1-65.5 48q-.75-47.997-.5-96"/><path style="opacity:1" fill="#c3c3c3" d="M152.5 218.5q16.174 65.67 81 84-53.8-9.779-75.5-60a87 87 0 0 1-5.5-24"/><path style="opacity:1" fill="#566872" d="M23.5 351.5q-.25 11.011.5 22 4.75 12.75 17.5 17.5 219 .75 438 .5v8h-464v-48z"/><path style="opacity:1" fill="#74818a" d="M23.5 351.5h456v40q-219 .25-438-.5-12.75-4.75-17.5-17.5a242 242 0 0 1-.5-22"/><path style="opacity:1" d="M31.5 367.5h48v16h-48zm64 0h48v16h-48zm64 0h48v16h-48zm64 0h48v16h-48zm64 0h48v16h-48zm64 0h48v16h-48zm64 0h48v16h-48z"/></svg>