<svg version="1.0" xmlns="http://www.w3.org/2000/svg" width="530.667" height="682.667" viewBox="0 0 398 512"><path d="M43.5 1.9c-16 4.6-30.3 16.5-37.3 31.2C4 37.7 1.6 44.2 1 47.5c-.8 4.3-1 63.2-.7 212 .2 113.3.6 206.9.8 208 .3 1.1 1 2.9 1.6 4s1.3 2.9 1.4 4c.2 1.1.7 2.4 1.2 3 .4.5 2.5 3.8 4.8 7.2 4.7 7.3 12.9 14.9 20.2 18.8 2.9 1.6 5.4 3.1 5.7 3.4s1.2.7 2 .8 4 .9 7 1.7c4.9 1.4 22.7 1.6 154 1.6 164.2 0 152.7.4 167-6.6 14.5-7.2 27.7-24.3 30.9-40.2.8-3.7 1.1-56.3 1.1-172.1V126.3l-2.2-2.9C392.9 119.7 298.2 17 288.6 7.2l-7-7.2-116.1.1C58.7.1 49 .3 43.5 1.9m217.8 53.8c.4 40.8.7 43.1 7.5 57.3 5 10.6 15.7 21.3 26.7 26.5 4.4 2.2 8.9 4 10 4.1 1.1.2 4.9 1 8.5 1.9 7.8 1.9 38.5 3.5 54.1 2.7l10.9-.5V338H19V196.1c0-134.5.1-142.2 1.8-147.8C25 35.1 34.8 25.1 48 20.9c5.1-1.7 12.9-1.8 109.2-1.8l103.6-.1zm30.8-16.4c5.7 6.2 26.8 29 46.8 50.6l36.3 39.3-25.8-.5c-28.1-.5-34.8-1.5-45.2-6.4-6.7-3.2-14.8-11-17.9-17.3-4.8-9.8-5.3-14.4-5.3-46.7 0-16.7.2-30.3.4-30.3s5 5.1 10.7 11.3m86.9 368c0 54.7-.2 56.4-6.4 66-6 9.3-13.7 15.2-23.8 18.2-4.5 1.3-22.3 1.5-149.8 1.5-157.8 0-149.5.3-159.5-5.6-4.9-2.8-12.4-10.6-15.3-15.6-5.1-9-5.2-10.6-5.2-64V358h360z"/><path d="M97.4 195.7c.3 1.6.8 5.9 1.1 9.8 1.1 11.5-.4 10.5 16.1 10.5 7.9 0 14.4.2 14.4.5 0 .4-7.9 10.8-17.5 23.3l-17.4 22.7-.1 9.2v9.3h76v-23h-36.1l17.6-23.1 17.5-23.2V193H96.8zm86.3-2c-.4.3-.7 20.1-.7 44V281h29v-88h-13.8c-7.6 0-14.2.3-14.5.7M229 237v44h29v-21h12c14.8 0 21.1-2 26.4-8.2 5.5-6.4 7.1-12.3 7.1-26.4 0-11.4-.2-12.3-3-18-3.7-7.2-9.6-11.5-18-13.2-3.5-.7-15.5-1.2-29.7-1.2H229zm42.6-18.9c1.6 1.3 1.9 14.5.5 16.8-.6 1-3.3 1.6-7.5 1.9l-6.6.4v-21.5l6.1.7c3.4.3 6.8 1.1 7.5 1.7M118.3 416.7c-4.1.8-7.3 5.2-7.3 9.8 0 3.6.5 4.8 3.1 6.9l3.1 2.6h79.3c56.1 0 80.1-.3 81.8-1.1 4.8-2.2 6.5-9.6 3.3-14.4-.9-1.3-3.3-2.9-5.3-3.4-3.7-1.1-152.9-1.4-158-.4"/></svg>